<svg xmlns="http://www.w3.org/2000/svg" width="24" height="24" viewBox="0 0 24 24"><path d="M12 0C5.38366 0 0 5.38366 0 12C0 18.6163 5.38366 24 12 24C18.6175 24 24 18.6163 24 12C24 5.38366 18.6163 0 12 0ZM12.0275 22.6423C6.17487 22.6423 1.41271 17.8813 1.41271 12.0275C1.41271 6.17487 6.17487 1.41271 12.0275 1.41271C17.8802 1.41271 22.6435 6.17487 22.6435 12.0275C22.6435 17.8813 17.8813 22.6423 12.0275 22.6423ZM13.3898 8.08524C13.8794 8.08524 14.4046 8.2366 14.4046 8.2366L14.7176 6.37668C14.7176 6.37668 14.0491 6.15079 12.4621 6.15079C11.4886 6.15079 10.9221 6.52117 10.5093 7.06469C10.1183 7.57726 10.1034 8.40745 10.1034 8.94525V10.1653H8.84663V11.9805H10.1045V18.2884H12.4621V11.9805H14.3289L14.4688 10.1653H12.4621V8.74572C12.4621 8.25838 12.9001 8.08524 13.3898 8.08524Z"></path></svg>