<svg xmlns="http://www.w3.org/2000/svg" fill="currentColor" width="24" height="24" viewBox="0 0 24 24"><path d="M12.0006 0C5.38392 0 0 5.38366 0 12C0 18.6163 5.38277 24 11.9994 24C18.6172 24 24 18.6163 24 12C24.0011 5.38366 18.6172 0 12.0006 0ZM12.0281 22.6423C6.17516 22.6423 1.41278 17.8813 1.41278 12.0275C1.41278 6.17487 6.17516 1.41271 12.0281 1.41271C17.881 1.41271 22.6446 6.17487 22.6446 12.0275C22.6446 17.8813 17.8822 22.6423 12.0281 22.6423ZM12.0476 8.74802C10.2736 8.74802 8.83444 10.2169 8.83444 12.0275C8.83444 13.8404 10.2736 15.3093 12.0476 15.3093C13.8227 15.3093 15.2619 13.8404 15.2619 12.0275C15.2619 10.2181 13.8227 8.74802 12.0476 8.74802ZM12.0476 14.1558C10.8974 14.1558 9.96512 13.204 9.96512 12.0287C9.96512 10.8556 10.8974 9.90272 12.0476 9.90272C13.1989 9.90272 14.1312 10.8556 14.1312 12.0287C14.1312 13.204 13.1989 14.1558 12.0476 14.1558ZM14.6656 5.67492H9.42959C7.45492 5.67492 5.85408 7.30893 5.85408 9.3248V14.6695C5.85408 16.6865 7.45492 18.3205 9.42959 18.3205H14.6656C16.6414 18.3205 18.2411 16.6865 18.2411 14.6695V9.3248C18.2411 7.30893 16.6414 5.67492 14.6656 5.67492ZM17.1001 14.7646C17.1001 16.1017 16.0371 17.1864 14.7275 17.1864H9.36882C8.0581 17.1864 6.99622 16.1017 6.99622 14.7646V9.29384C6.99622 7.95566 8.0581 6.87205 9.36882 6.87205H14.7275C16.0382 6.87205 17.1001 7.95566 17.1001 9.29384V14.7646ZM15.3685 7.85819C14.9557 7.85819 14.6209 8.20105 14.6209 8.62303C14.6209 9.04615 14.9557 9.38672 15.3685 9.38672C15.7814 9.38672 16.1173 9.04615 16.1173 8.62303C16.1185 8.20105 15.7825 7.85819 15.3685 7.85819Z"></path></svg>