<svg xmlns="http://www.w3.org/2000/svg"  class="Logo_logo__xR4gI" width="170" height="58" viewBox="0 0 170 58" role="img" aria-label="Durvill Foods logo"><path d="M90.556 42.5076H83.4229C82.6802 42.5076 82.0544 42.8064 81.5472 43.404C82.0131 43.6515 82.2487 44.121 82.2487 44.8142V55.3292C82.2487 56.9494 82.9226 57.7604 84.2688 57.7604C85.0252 57.7604 85.6493 57.4667 86.1444 56.8812C85.7043 56.649 85.4843 56.1658 85.4843 55.43V50.7145H88.1027C89.3405 50.7145 90.2053 50.7828 90.7004 50.9177C91.1406 50.6172 91.3606 50.2416 91.3606 49.784C91.3606 49.3265 91.1302 49.0021 90.6712 48.8041C90.2087 48.6077 89.4299 48.5087 88.3313 48.5087H85.486V44.8944H90.0849C91.156 44.8944 92.0225 45.0242 92.6827 45.282C93.1228 44.9149 93.3429 44.483 93.3429 43.9861C93.3429 43.4893 93.14 43.1188 92.7343 42.873C92.3268 42.6306 91.6013 42.5076 90.556 42.5076ZM119.34 44.5598C118.817 43.8444 118.109 43.2896 117.216 42.8952C116.322 42.5008 115.272 42.3011 114.061 42.3011C111.78 42.3011 110.073 43.0164 108.94 44.4454C108.034 45.5876 107.508 47.0148 107.325 48.6999C107.264 48.0972 107.172 47.5202 107.023 46.9875C106.768 46.0827 106.38 45.2734 105.857 44.5581C105.335 43.8427 104.626 43.2879 103.734 42.8935C102.84 42.4991 101.788 42.2994 100.579 42.2994C98.2977 42.2994 96.5905 43.0147 95.4576 44.4437C94.3229 45.8744 93.7572 47.7336 93.7572 50.0196C93.7572 52.3074 94.3229 54.1683 95.4576 55.6041C96.5905 57.0399 98.2977 57.7587 100.579 57.7587C101.774 57.7587 102.825 57.5624 103.724 57.1646C104.623 56.7719 105.336 56.2119 105.857 55.4914C106.38 54.771 106.767 53.9549 107.023 53.0398C107.171 52.5071 107.264 51.9318 107.325 51.3308C107.506 53.0227 108.034 54.4551 108.94 55.6041C110.073 57.0399 111.78 57.7587 114.061 57.7587C115.258 57.7587 116.307 57.5624 117.206 57.1646C118.105 56.7719 118.819 56.2119 119.34 55.4914C119.862 54.771 120.249 53.9549 120.505 53.0398C120.758 52.1298 120.887 51.1191 120.887 50.0094C120.887 48.8997 120.76 47.8924 120.505 46.9858C120.249 46.0827 119.86 45.2751 119.34 44.5598ZM103.485 54.1461C102.99 55.208 102.137 55.739 100.928 55.739C100.117 55.739 99.4307 55.4744 98.8668 54.9434C97.684 53.8405 97.0943 51.9198 97.0943 49.1848C97.0943 45.9307 98.1379 44.3037 100.227 44.3037C101.437 44.3037 102.35 44.8295 102.971 45.8778C103.588 46.9244 103.945 48.3072 104.042 50.023C104.055 50.3372 104.064 50.6343 104.064 50.9211C104.062 52.2135 103.87 53.2874 103.485 54.1461ZM116.969 54.1461C116.474 55.208 115.621 55.739 114.412 55.739C113.601 55.739 112.915 55.4744 112.351 54.9434C111.168 53.8405 110.578 51.9198 110.578 49.1848C110.578 45.9307 111.622 44.3037 113.711 44.3037C114.921 44.3037 115.834 44.8295 116.453 45.8778C117.072 46.9244 117.429 48.3072 117.526 50.023C117.539 50.3372 117.548 50.6343 117.548 50.9211C117.546 52.2135 117.352 53.2874 116.969 54.1461ZM127.523 42.3011C125.654 42.3011 123.737 42.6562 121.771 43.363C122.142 43.9213 122.326 44.6725 122.326 45.608V54.0829C122.326 55.3771 122.745 56.3126 123.584 56.8914C124.422 57.4702 125.735 57.7604 127.521 57.7604C129.899 57.7604 131.828 57.0792 133.305 55.7185C134.782 54.3561 135.521 52.4627 135.521 50.0316C135.521 47.6021 134.782 45.7071 133.305 44.3447C131.83 42.984 129.901 42.3011 127.523 42.3011ZM130.936 54.0642C130.105 55.0715 129.005 55.5751 127.638 55.5751C126.27 55.5751 125.587 55.1534 125.587 54.31V44.8347C126.247 44.5888 126.894 44.4676 127.525 44.4676C128.969 44.4676 130.105 44.9781 130.936 45.999C131.768 47.02 132.186 48.3653 132.186 50.0418C132.184 51.715 131.768 53.0569 130.936 54.0642ZM145.286 49.347C144.454 48.9253 143.622 48.5326 142.792 48.1724C141.96 47.8104 141.251 47.4365 140.668 47.049C140.084 46.6614 139.792 46.238 139.792 45.7822C139.792 45.3263 140.032 44.9644 140.514 44.6912C140.993 44.4181 141.611 44.2832 142.358 44.2832C143.106 44.2832 143.684 44.4181 144.091 44.6912C144.495 44.9627 144.7 45.2734 144.7 45.62C144.7 45.9666 144.645 46.2483 144.535 46.4668C145.028 46.8219 145.558 46.9978 146.122 46.9978C146.686 46.9978 147.129 46.8441 147.451 46.5385C147.774 46.2312 147.936 45.8266 147.936 45.3229C147.936 44.4522 147.42 43.73 146.39 43.1581C145.36 42.5862 144.024 42.2994 142.389 42.2994C140.754 42.2994 139.372 42.6818 138.246 43.4432C137.12 44.2064 136.556 45.2273 136.556 46.5061C136.556 47.2829 136.848 47.9726 137.433 48.5787C138.017 49.1848 138.724 49.685 139.556 50.0811C140.386 50.4755 141.219 50.8494 142.051 51.2028C142.881 51.5579 143.589 51.954 144.172 52.3979C144.755 52.8418 145.049 53.3437 145.049 53.9088C145.049 54.4739 144.805 54.9263 144.317 55.2661C143.83 55.6058 143.163 55.7783 142.319 55.7783C141.473 55.7783 140.799 55.6348 140.297 55.3497C139.795 55.0629 139.544 54.7095 139.544 54.2878C139.544 53.8661 139.709 53.5042 140.039 53.2054C139.489 52.7683 138.929 52.5515 138.358 52.5515C137.787 52.5515 137.299 52.7222 136.893 53.062C136.487 53.4017 136.284 53.8576 136.284 54.4295C136.284 55.4095 136.862 56.2102 138.017 56.8282C139.173 57.448 140.584 57.7587 142.254 57.7587C143.925 57.7587 145.348 57.3404 146.522 56.5038C147.697 55.6673 148.283 54.5951 148.283 53.2856C148.283 52.4423 147.991 51.6808 147.408 50.9996C146.825 50.3218 146.118 49.7687 145.286 49.347ZM15.4717 0C11.9301 0 8.29906 0.670958 4.5769 2.01117C5.28007 3.06797 5.63252 4.485 5.63252 6.26569V22.3157C5.63252 24.7657 6.42509 26.5378 8.01366 27.6322C9.60052 28.7283 12.0883 29.2763 15.4717 29.2763C19.9761 29.2763 23.6278 27.9873 26.4267 25.4093C29.2239 22.8313 30.6234 19.2409 30.6234 14.6381C30.6234 10.037 29.2239 6.44666 26.4267 3.86697C23.6278 1.28899 19.9761 0 15.4717 0ZM21.9343 22.2765C20.3578 24.1852 18.2775 25.1379 15.6866 25.1379C13.0957 25.1379 11.8011 24.3406 11.8011 22.7409V4.79743C13.051 4.33305 14.2734 4.10087 15.4717 4.10087C18.2053 4.10087 20.3595 5.06718 21.9343 6.99981C23.5092 8.93586 24.2966 11.4882 24.2966 14.6586C24.2966 17.829 23.5092 20.3695 21.9343 22.2765ZM53.1557 3.76453C51.7494 3.76453 50.5511 4.3194 49.5625 5.42571C50.4479 5.89179 50.8897 6.77957 50.8897 8.09588V23.3333C50.8897 25.0354 50.3688 26.3244 49.327 27.2002C48.2868 28.0778 46.9269 28.5148 45.2472 28.5148C43.5675 28.5148 42.2076 28.0778 41.1657 27.2002C40.1256 26.3244 39.6047 25.0354 39.6047 23.3333V8.32636C39.6047 6.77787 39.2918 5.63229 38.6677 4.8845C38.0436 4.13672 37.0482 3.76283 35.6814 3.76283C34.3146 3.76283 33.1369 4.31769 32.1466 5.424C33.0303 5.89009 33.4739 6.77787 33.4739 8.09417V22.4421C33.4739 25.7678 34.4384 28.3663 36.3639 30.2341C38.2912 32.1052 41.2448 33.0391 45.2283 33.0391C49.2118 33.0391 52.174 32.1052 54.1116 30.2341C56.0509 28.3663 57.0206 25.7678 57.0206 22.4421V8.32807C57.0223 5.28571 55.7346 3.76453 53.1557 3.76453ZM83.4986 26.6864C82.1971 26.0154 81.0779 25.0491 80.1392 23.7857L75.5316 17.0181C77.2508 16.2959 78.6159 15.2835 79.632 13.9826C80.6463 12.6799 81.1552 11.1143 81.1552 9.28243C81.1552 6.47397 80.0154 4.28696 77.7374 2.72822C75.4594 1.16948 72.7464 0.387551 69.5968 0.387551H63.1135C61.6814 0.387551 60.4831 0.956072 59.5203 2.09141C60.4057 2.55579 60.8476 3.44357 60.8476 4.75987V24.6752C60.8476 27.7432 62.1233 29.278 64.6746 29.278C66.0792 29.278 67.2775 28.7248 68.2678 27.6134C67.4082 27.1763 66.9784 26.2612 66.9784 24.8681V18.1398H69.2839L73.8124 25.4486C74.7751 26.9698 75.6743 27.989 76.5064 28.5046C77.3385 29.0202 78.2635 29.278 79.2795 29.278C81.2068 29.278 82.6131 28.4141 83.4986 26.6864ZM73.4238 12.6287C72.4593 13.4157 71.0667 13.8084 69.2443 13.8084H67.0196V4.7189H69.2443C71.0667 4.7189 72.4593 5.11328 73.4238 5.89862C74.3866 6.68567 74.868 7.80735 74.868 9.26365C74.868 10.72 74.3866 11.8416 73.4238 12.6287ZM84.1622 4.64207L91.23 24.3662C91.6219 25.4759 91.9263 26.2749 92.148 26.7649C92.3681 27.2549 92.669 27.7312 93.0455 28.1956C93.422 28.66 93.8398 28.9553 94.2954 29.0851C94.751 29.2148 95.3561 29.278 96.1109 29.278C97.543 29.278 98.5849 28.9553 99.2347 28.3117C99.8863 27.668 100.629 26.3534 101.461 24.3662L108.959 6.38178C109.426 5.27547 109.66 4.24257 109.66 3.2882C109.66 2.33384 109.337 1.54679 108.685 0.928756C108.034 0.310723 107.111 0.00170727 105.914 0.00170727C104.716 0.00170727 103.584 0.33804 102.515 1.00729C103.088 1.5485 103.375 2.18701 103.375 2.92114C103.375 3.65698 103.125 4.77182 102.632 6.26739L96.6954 22.9355L90.6832 4.33305C90.1382 2.70773 89.5124 1.58093 88.8093 0.949243C88.1061 0.317552 87.2207 0.00170727 86.1548 0.00170727C84.6693 0.00170727 83.3163 0.633398 82.0922 1.89678C82.9759 2.35945 83.667 3.27625 84.1622 4.64207ZM113.099 4.33305V24.6752C113.099 26.2476 113.412 27.4085 114.037 28.1563C114.661 28.9041 115.65 29.278 117.005 29.278C118.36 29.278 119.53 28.7248 120.521 27.6151C119.687 27.1781 119.269 26.263 119.269 24.8698V4.56354C119.269 1.52118 117.968 0 115.365 0C113.932 0 112.75 0.554863 111.813 1.66459C112.671 2.10165 113.099 2.99285 113.099 4.33305ZM125.206 5.58619V23.6474C125.206 26.0461 125.74 27.7227 126.808 28.6753C127.874 29.6314 129.71 30.106 132.315 30.106H138.17C139.733 30.106 140.925 29.7185 141.745 28.9468C142.565 28.1734 142.974 27.2771 142.974 26.2595C142.974 25.2403 142.661 24.513 142.037 24.0742C141.072 25.1054 139.668 25.621 137.82 25.621H133.797C132.184 25.621 131.376 24.7059 131.376 22.8757V5.82009C131.376 2.77773 130.074 1.25655 127.471 1.25655C126.039 1.25655 124.857 1.80971 123.92 2.91943C124.777 3.3565 125.206 4.24598 125.206 5.58619ZM163.474 27.2105C162.511 28.2417 161.105 28.7556 159.259 28.7556H155.235C153.621 28.7556 152.815 27.8422 152.815 26.0103V8.95464C152.815 5.91228 151.512 4.3911 148.91 4.3911C147.478 4.3911 146.294 4.94596 145.357 6.05569C146.216 6.49446 146.646 7.38224 146.646 8.72245V26.7837C146.646 29.1824 147.179 30.8572 148.248 31.8116C149.314 32.766 151.151 33.2423 153.753 33.2423H159.611C161.172 33.2423 162.363 32.8547 163.184 32.0813C164.004 31.3096 164.413 30.4133 164.413 29.3958C164.411 28.3766 164.1 27.6476 163.474 27.2105Z" fill="#006f3b"></path><path d="M79.5148 36.3392C11.4243 44.5204 0 30.5549 0 30.5549C27.6436 86.0413 72.2905 40.353 79.1555 39.6103C129.914 29.254 170 45.9426 170 45.9426C170 45.9426 147.607 28.1596 79.5148 36.3392Z" fill="#ce2727"></path></svg>