<svg width="64" height="36" viewBox="0 0 64 36" fill="none" xmlns="http://www.w3.org/2000/svg">
<path d="M30.7209 35.9741H31.0731V34.4106H30.7209V35.9741ZM46.7967 35.3076C46.7967 35.5859 46.6949 35.7156 46.5104 35.7156C46.3318 35.7156 46.228 35.5789 46.228 35.3076V34.4106H45.8748V35.2836C45.8748 35.7785 46.1043 36 46.4984 36C46.9055 36 47.1489 35.7705 47.1489 35.2866V34.4106H46.7957L46.7967 35.3076ZM26.1063 34.4106L25.6313 35.9741H25.9945L26.1053 35.573H26.5523L26.673 35.9741H27.0551L26.5682 34.4106H26.1063ZM26.1581 35.3076L26.2509 34.9763C26.2759 34.8855 26.2988 34.7668 26.3228 34.675H26.3268C26.3497 34.7668 26.3776 34.8825 26.4056 34.9763L26.5024 35.3076H26.1581ZM29.0666 34.677C29.1943 34.677 29.2941 34.7039 29.3629 34.7348L29.4368 34.4565C29.3749 34.4225 29.2352 34.3876 29.0526 34.3876C28.5797 34.3876 28.2005 34.682 28.2005 35.2158C28.2005 35.6608 28.4789 36 29.0187 36C29.2063 36 29.354 35.9631 29.4168 35.9331L29.3659 35.6548C29.2941 35.6847 29.1783 35.7067 29.0696 35.7067C28.7573 35.7067 28.5717 35.5091 28.5717 35.1958C28.5717 34.8466 28.7892 34.677 29.0666 34.677ZM40.9618 25.8538C40.7633 25.6253 40.5498 25.4368 40.3203 25.2891C40.0918 25.1434 39.8433 25.0387 39.5789 24.9748C39.3135 24.9129 39.0182 24.88 38.6939 24.88H29.4318V33.6273L38.66 33.6613C39.1399 33.6613 39.551 33.5914 39.8873 33.4517C40.2255 33.312 40.5508 33.0726 40.8641 32.7323C41.1344 32.446 41.332 32.1606 41.4537 31.8763C41.5755 31.5919 41.6373 31.2597 41.6373 30.8805V27.6258C41.6373 27.2776 41.5824 26.9663 41.4747 26.6889C41.3649 26.4106 41.1943 26.1322 40.9618 25.8538ZM39.3764 31.4652H31.6687V27.0761H39.3764V31.4652ZM41.8329 35.9741H42.1851V34.4106H41.8329V35.9741ZM5.35794 35.8294H5.66625V35.5191H5.35794V35.8294ZM44.1646 35.0461C43.9601 34.9693 43.8753 34.9254 43.8753 34.8256C43.8753 34.7468 43.9491 34.676 44.1028 34.676C44.2524 34.676 44.3672 34.7189 44.426 34.7488L44.5049 34.4664C44.4121 34.4225 44.2844 34.3876 44.1068 34.3876C43.7416 34.3876 43.5161 34.5892 43.5161 34.8566C43.5161 35.0841 43.6877 35.2277 43.9471 35.3205C44.1347 35.3854 44.2095 35.4413 44.2095 35.539C44.2095 35.6408 44.1237 35.7077 43.9611 35.7077C43.8114 35.7077 43.6628 35.6598 43.57 35.6109L43.4971 35.8992C43.5859 35.9491 43.7615 35.998 43.9391 35.998C44.3682 35.998 44.5667 35.7745 44.5667 35.5131C44.5667 35.2926 44.44 35.1479 44.1646 35.0461ZM33.1334 34.3816C32.6755 34.3816 32.3732 34.7328 32.3732 35.2008C32.3732 35.6478 32.6465 35.999 33.1075 35.999C33.5665 35.999 33.8748 35.6897 33.8748 35.1749C33.8748 34.7428 33.6124 34.3816 33.1334 34.3816ZM33.1265 35.7176C32.891 35.7176 32.7463 35.5031 32.7463 35.1948C32.7463 34.8905 32.886 34.663 33.1265 34.663C33.3699 34.663 33.5016 34.9045 33.5016 35.1878C33.5016 35.4911 33.3649 35.7176 33.1265 35.7176ZM40.021 35.0781C39.9671 35.2577 39.9182 35.4423 39.8793 35.6308H39.8723C39.8354 35.4373 39.7865 35.2597 39.7326 35.0721L39.543 34.4106H39.1559L39.6568 35.9741H40.0688L40.5937 34.4106H40.2185L40.021 35.0781ZM36.1417 34.8646C36.1417 35.101 36.1487 35.3125 36.1696 35.5191H36.1646C36.0928 35.3425 36.002 35.1479 35.9092 34.9833L35.5859 34.4106H35.1729V35.9741H35.4971V35.5031C35.4971 35.2467 35.4931 35.0262 35.4812 34.8177H35.4901C35.564 35.0022 35.6687 35.2028 35.7605 35.3694L36.0948 35.9731H36.465V34.4096H36.1407L36.1417 34.8646ZM24.0688 34.677C24.1956 34.677 24.2963 34.7039 24.3652 34.7348L24.44 34.4565C24.3772 34.4225 24.2385 34.3876 24.0549 34.3876C23.5829 34.3876 23.2028 34.682 23.2028 35.2158C23.2028 35.6608 23.4802 36 24.02 36C24.2075 36 24.3562 35.9631 24.4181 35.9331L24.3672 35.6548C24.2953 35.6847 24.1796 35.7067 24.0708 35.7067C23.7585 35.7067 23.573 35.5091 23.573 35.1958C23.573 34.8466 23.7905 34.677 24.0688 34.677ZM6.44849 35.8294H6.7568V35.5191H6.44849V35.8294ZM21.5495 35.9741H21.9017V34.4106H21.5495V35.9741ZM6.44849 34.7328H6.7568V34.4225H6.44849V34.7328ZM6.44849 35.2886H6.7568V34.9793H6.44849V35.2886ZM5.90272 35.2886H6.21202V34.9793H5.90272V35.2886ZM5.90272 35.8294H6.21202V35.5191H5.90272V35.8294ZM5.35794 35.2886H5.66625V34.9793H5.35794V35.2886ZM5.35794 34.7328H5.66625V34.4225H5.35794V34.7328ZM5.90272 34.7328H6.21202V34.4225H5.90272V34.7328ZM28.6086 33.6263V31.3395H18.7608V24.8561H16.4999V30.9384C16.4999 31.3345 16.5697 31.6847 16.7084 31.985C16.8481 32.2844 17.0606 32.5707 17.347 32.8411C17.5455 33.0247 17.7431 33.1724 17.9426 33.2851C18.1412 33.3979 18.3467 33.4827 18.5602 33.5395C18.7738 33.5984 18.9813 33.6263 19.1838 33.6263H28.6086ZM13.1853 33.6942H15.6119V24.879H13.1853V33.6942ZM17.1554 35.3076C17.1554 35.5859 17.0536 35.7156 16.868 35.7156C16.6894 35.7156 16.5857 35.5789 16.5857 35.3076V34.4106H16.2335V35.2836C16.2335 35.7785 16.462 36 16.8561 36C17.2642 36 17.5066 35.7705 17.5066 35.2866V34.4106H17.1544L17.1554 35.3076ZM19.8493 34.8646C19.8493 35.101 19.8563 35.3125 19.8773 35.5191H19.8723C19.8004 35.3425 19.7097 35.1479 19.6179 34.9833L19.2936 34.4106H18.8815V35.9741H19.2058V35.5031C19.2058 35.2467 19.2008 35.0262 19.1888 34.8177H19.1978C19.2716 35.0022 19.3764 35.2028 19.4692 35.3694L19.8024 35.9731H20.1736V34.4096H19.8493V34.8646ZM14.3477 34.4106L14.1831 34.9304C14.1302 35.104 14.0773 35.3105 14.0354 35.4911H14.0264C13.9915 35.3076 13.9456 35.113 13.8947 34.9324L13.7421 34.4106H13.2721L13.1724 35.9741H13.4986L13.5286 35.3794C13.5375 35.1848 13.5475 34.9424 13.5535 34.7328H13.5585C13.5984 34.9364 13.6483 35.1599 13.7002 35.3455L13.8668 35.9481H14.1422L14.3318 35.3375C14.3926 35.1539 14.4565 34.9324 14.5084 34.7328H14.5123C14.5123 34.9603 14.5193 35.1878 14.5263 35.3754L14.5513 35.9751H14.8945L14.8117 34.4116L14.3477 34.4106ZM11.1649 34.3816C10.7069 34.3816 10.4056 34.7328 10.4056 35.2008C10.4056 35.6478 10.679 35.999 11.1399 35.999C11.5979 35.999 11.9062 35.6897 11.9062 35.1749C11.9062 34.7428 11.6448 34.3816 11.1649 34.3816ZM11.1579 35.7176C10.9214 35.7176 10.7777 35.5031 10.7777 35.1948C10.7777 34.8905 10.9164 34.663 11.1579 34.663C11.4013 34.663 11.533 34.9045 11.533 35.1878C11.533 35.4911 11.3964 35.7176 11.1579 35.7176ZM8.89499 34.677C9.0227 34.677 9.12247 34.7039 9.19132 34.7348L9.26515 34.4565C9.20329 34.4225 9.06361 34.3876 8.88102 34.3876C8.40808 34.3876 8.02893 34.682 8.02893 35.2158C8.02893 35.6608 8.30731 36 8.84709 36C9.03467 36 9.18234 35.9631 9.2452 35.9331L9.19431 35.6548C9.12247 35.6847 9.00673 35.7067 8.89798 35.7067C8.58568 35.7067 8.4001 35.5091 8.4001 35.1958C8.4001 34.8466 8.61761 34.677 8.89499 34.677ZM0 27.132H5.02968L5.07558 33.6263H7.26765L7.25567 27.098H12.2973V24.891H0V27.132ZM53.6204 35.8294H53.9297V35.5191H53.6204V35.8294ZM15.2886 17.4408C15.3794 17.4587 15.567 17.4048 15.7955 17.319L15.7146 16.894C15.3624 17.0895 14.9204 17.3709 15.2886 17.4408ZM15.569 12.455C15.558 12.463 15.548 12.4709 15.538 12.4779L15.6308 12.9708C15.8473 12.8431 16.0619 12.7074 16.2385 12.5907L15.569 12.455ZM17.759 12.9L17.4577 12.8381C16.9339 13.1594 16.2844 13.5326 15.7925 13.8209L15.8304 14.0205C16.3183 13.792 16.9329 13.4617 17.3609 13.1644C17.4886 13.0756 17.6243 12.9878 17.759 12.9ZM16.1716 14.5662C16.6256 14.4146 17.9227 13.7271 18.8276 13.1175L18.1761 12.9848C17.6233 13.353 17.0207 13.775 16.5288 14.1033C16.3123 14.2479 16.1048 14.3487 15.9062 14.4295L15.9451 14.6371C16.0229 14.6131 16.1008 14.5902 16.1716 14.5662ZM18.2849 11.9751C19.3425 11.0451 18.4674 11.5989 17.3799 12.2754L17.788 12.3582C17.9566 12.2425 18.1232 12.1177 18.2849 11.9751ZM19.7466 12.1856C19.6727 12.0898 19.3056 12.2724 18.8236 12.5677L19.4113 12.6875C19.6777 12.464 19.8204 12.2814 19.7466 12.1856ZM15.6887 13.2751L15.7306 13.4966C16.1626 13.2442 16.6336 13.0257 17.1085 12.7683L16.7134 12.6875C16.5418 12.7922 16.3722 12.894 16.2135 12.9858C16.0229 13.0965 15.8513 13.1903 15.6887 13.2751ZM15.089 18.7259C15.128 18.8735 15.5151 18.8057 16.0439 18.6331L15.982 18.3038C15.4243 18.4964 15.0631 18.6291 15.089 18.7259ZM21.338 13.6263L20.8351 13.5246C20.6715 13.7062 20.4849 13.9077 20.2415 14.1542C18.9763 15.4383 17.1464 16.2474 16.3183 16.6056L16.4031 17.0556C17.327 16.6066 18.5782 15.8533 19.3475 15.2507C19.978 14.7558 20.7194 14.1362 21.338 13.6263ZM19.4423 13.2422L19.1669 13.1863C18.6101 13.6513 17.8528 14.1891 17.1185 14.5662C16.6835 14.7897 16.3223 14.9184 16.016 15.0032L16.0878 15.3824C16.1447 15.3664 16.1986 15.3545 16.2564 15.3345C17.2113 15.0192 18.664 13.8788 19.4423 13.2422ZM60.7383 7.59691C57.6443 2.34173 48.7074 5.92966 46.3717 7.03617L45.35 2.24694L40.3372 0L10.3986 6.73684L13.5635 23.5789L44.425 17.0397L47.5909 12.7473L46.7368 8.74532C50.0384 8.0459 56.439 5.80294 60.1477 7.98603C60.5777 8.58967 60.894 9.34398 61.0546 10.2829C62.8486 20.7234 58.209 23.3604 56.89 24.2125C56.1457 24.6924 55.2118 25.0846 54.5044 25.347V24.8561H45.4298C44.9499 24.8561 44.5418 24.909 44.2075 25.0107C43.8733 25.1145 43.55 25.3091 43.2367 25.5964C42.9244 25.8947 42.6979 26.205 42.5602 26.5313C42.4225 26.8556 42.3547 27.2337 42.3547 27.6657V30.8466C42.3547 31.2048 42.4126 31.5231 42.5263 31.8004C42.6411 32.0778 42.8226 32.3582 43.0701 32.6406C43.2886 32.896 43.5091 33.0975 43.7346 33.2432C43.9601 33.3889 44.2115 33.4946 44.4879 33.5605C44.7643 33.6263 45.0706 33.6613 45.4068 33.6613H54.5034V31.3345H44.6266V30.4056L54.5034 30.3826V28.1187H44.5657V27.099H54.5054V26.1681C54.7648 26.1033 55.0691 26.0135 55.4592 25.8738C57.7181 25.0656 63.561 23.9152 63.5291 14.2898C63.5171 10.7718 62.4106 8.72138 60.7383 7.59691ZM22.5223 16.7882C22.237 17.9327 19.4602 20.2335 16.4669 20.5887C14.5862 20.8132 14.2 21.337 14.2 21.337C14.2 21.337 14.8426 20.3173 16.3412 20.1946C18.5782 20.012 21.8478 17.762 22.1282 16.9199C22.205 16.6894 21.8309 16.6645 21.2332 16.8261L16.3063 20.016L16.0878 18.8596C15.6907 18.9514 15.3415 18.9903 15.0791 18.9464C14.0983 18.7827 14.7488 18.4475 15.9182 17.9656L15.8453 17.5784C15.5291 17.6842 15.2876 17.7271 15.1629 17.6832C14.673 17.5086 14.8137 17.0007 15.6378 16.4819L15.5211 15.8653C14.665 15.9212 14.0903 15.6348 14.1532 15.4083C14.223 15.1579 14.7528 14.9803 15.3225 14.8167L15.2816 14.6001C14.8067 14.654 14.5503 14.4884 14.7837 14.229C14.8965 14.1043 15.0182 13.9915 15.1469 13.8878L15.0851 13.5605C14.2759 13.8927 14.0464 13.7321 14.3836 13.2402C14.4994 13.0716 14.6929 12.875 14.9174 12.6765L14.7408 11.7406L15.8214 11.9601C16.2235 11.6667 16.5498 11.4502 16.5498 11.4502C16.6336 11.4293 16.7503 11.6179 16.4131 11.8613C16.3532 11.9042 16.2654 11.9651 16.1676 12.0309L16.873 12.1746C17.4926 11.7885 18.5074 11.2227 18.9464 11.1978C19.4931 11.1659 18.9464 11.7665 18.1891 12.3562C18.1631 12.3772 18.1292 12.4001 18.0973 12.423L18.4146 12.4869C18.8606 12.2185 19.2637 12.001 19.4832 11.9242C19.8723 11.7875 20.2085 11.987 19.9561 12.3981C19.9032 12.4829 19.7955 12.6046 19.6598 12.7403L19.982 12.8052C20.5528 12.3582 21.0496 12.0479 21.2911 12.2295C21.4926 12.3801 21.6403 12.4989 21.2232 13.0576L21.8748 13.1903C22.1811 12.9439 22.4225 12.7593 22.5313 12.7034C22.8785 12.5248 23.4991 12.1876 23.4143 13.1145C23.4033 13.2332 23.3674 13.3559 23.3115 13.4827L25.6593 13.9596L21.9356 16.3712C22.3407 16.3472 22.6071 16.449 22.5223 16.7882ZM26.7917 16.5567L25.7072 10.8785L26.8526 10.659L27.9371 16.3372L26.7917 16.5567ZM28.4211 16.2444L27.3365 10.5662L28.4819 10.3467L29.5665 16.0249L28.4211 16.2444ZM44.2175 8.09079C44.2095 8.0878 44.1956 8.08181 44.1956 8.08181C44.1956 8.08181 43.7715 8.09479 43.7266 8.35121C43.6887 8.56872 43.7965 8.68446 43.8304 8.71439C43.6338 8.87802 43.3854 8.98179 43.106 8.98179C42.4505 8.98179 41.9187 8.44899 41.9187 7.79247C41.9187 7.13594 42.4505 6.60414 43.106 6.60414C43.543 6.60414 43.9082 6.85158 44.1147 7.20279C44.1068 7.1998 44.0938 7.19381 44.0938 7.19381C44.0938 7.19381 43.8623 7.3325 43.8513 7.59391C43.8394 7.85533 44.2484 7.97905 44.2484 7.97905C44.2484 7.97905 44.2544 7.98104 44.2554 7.98104C44.2484 8.02095 44.2275 8.05288 44.2175 8.09079ZM46.6081 8.13969L46.5203 7.72961C48.5977 6.95136 55.1419 4.62459 58.7418 6.71689C54.8735 5.70915 49.6014 7.43128 46.6081 8.13969ZM53.5306 26.4884C53.2302 26.4884 52.9868 26.2449 52.9868 25.9436C52.9868 25.6413 53.2302 25.3989 53.5306 25.3989C53.8319 25.3989 54.0753 25.6413 54.0753 25.9436C54.0753 26.2449 53.8319 26.4884 53.5306 26.4884ZM55.8843 25.2671C56.3482 25.0516 56.8301 24.8022 57.2901 24.5148C58.9324 23.4872 63.4203 20.7763 61.6363 10.1861C61.5605 9.7341 61.4527 9.32502 61.328 8.93988C62.3437 10.0574 62.9743 11.7585 62.9903 14.2839C63.0441 22.7009 58.2749 24.5148 55.8843 25.2671ZM16.8132 19.2307L19.2607 17.6453C18.4186 18.0384 17.5086 18.4315 16.7104 18.686L16.8132 19.2307ZM23.0052 13.9656C22.4216 14.7149 21.2721 15.571 19.9142 16.5248C18.8855 17.2482 17.5884 17.7431 16.5977 18.0903L16.6585 18.4116C17.8119 17.9666 19.2198 17.2851 19.4842 17.1255C19.6757 17.0097 20.2953 16.7513 20.9269 16.5667L24.4809 14.2649L23.0052 13.9656ZM20.5158 13.4597L19.9122 13.337C19.3106 13.8528 18.5203 14.5113 17.5385 15.1549C17.0566 15.4712 16.5887 15.6598 16.1596 15.7665L16.2355 16.1676C16.3752 16.1038 16.5148 16.0389 16.6765 15.9771C17.8099 15.542 19.554 14.3627 20.5158 13.4597ZM48.8172 34.4106L48.3422 35.9741H48.7054L48.8162 35.573H49.2632L49.3839 35.9741H49.766L49.2791 34.4106H48.8172ZM48.867 35.3076L48.9608 34.9763C48.9858 34.8855 49.0097 34.7668 49.0317 34.675H49.0367C49.0596 34.7668 49.0876 34.8825 49.1155 34.9763L49.2133 35.3076H48.867ZM22.6401 13.8907L21.7002 13.7002C21.4787 13.9027 21.2492 14.1232 21.0077 14.3767C20.0778 15.3525 17.8997 16.6974 16.455 17.335L16.5268 17.7161C17.5306 17.3091 18.7309 16.8192 19.6408 16.2504C21.1574 15.3026 22.0943 14.5253 22.6401 13.8907ZM21.1973 12.438C21.1354 12.3143 20.867 12.5208 20.429 12.894L20.9539 13.0007C21.1544 12.7553 21.2562 12.5548 21.1973 12.438ZM53.0756 34.7328H53.3849V34.4225H53.0756V34.7328ZM53.6204 35.2886H53.9297V34.9793H53.6204V35.2886ZM54.1651 35.8294H54.4744V35.5191H54.1651V35.8294ZM53.6204 34.7328H53.9297V34.4225H53.6204V34.7328ZM51.3954 34.4106H51.0432V35.9741H52.016V35.6767H51.3954V34.4106ZM53.0756 35.8294H53.3849V35.5191H53.0756V35.8294ZM53.0756 35.2886H53.3849V34.9793H53.0756V35.2886ZM14.7518 13.2492C14.668 13.4108 14.8067 13.3909 15.0342 13.2911L14.9723 12.9688C14.8785 13.0666 14.7977 13.1624 14.7518 13.2492ZM15.0671 14.2918C15.0781 14.3078 15.1389 14.2948 15.2188 14.2719L15.2018 14.1811C15.113 14.24 15.0601 14.2809 15.0671 14.2918ZM23.1948 13.0287C23.3774 12.5368 22.9254 12.6924 22.215 13.2572L22.9943 13.4158C23.0801 13.2791 23.1509 13.1474 23.1948 13.0287ZM14.8256 15.3026C14.5652 15.4512 14.8855 15.571 15.4532 15.5101L15.3844 15.1459C15.1459 15.1908 14.9643 15.2237 14.8256 15.3026ZM54.1651 35.2886H54.4744V34.9793H54.1651V35.2886ZM54.1651 34.7328H54.4744V34.4225H54.1651V34.7328ZM58.9264 28.4839C58.5902 28.3023 58.2449 28.2115 57.8927 28.2115C57.5405 28.2115 57.1953 28.3033 56.8591 28.4839C56.5218 28.6655 56.2594 28.9239 56.0708 29.2622C55.8833 29.6014 55.7885 29.9526 55.7885 30.3198C55.7885 30.682 55.8823 31.0312 56.0668 31.3664C56.2534 31.7027 56.5118 31.9621 56.8461 32.1467C57.1793 32.3322 57.5286 32.424 57.8927 32.424C58.2569 32.424 58.6051 32.3313 58.9394 32.1467C59.2726 31.9611 59.5321 31.7027 59.7166 31.3664C59.9022 31.0312 59.994 30.682 59.994 30.3198C59.994 29.9536 59.9002 29.6014 59.7126 29.2622C59.5251 28.9249 59.2627 28.6655 58.9264 28.4839ZM59.4153 31.1918C59.2607 31.4702 59.0441 31.6857 58.7658 31.8414C58.4874 31.997 58.1971 32.0748 57.8937 32.0748C57.5904 32.0748 57.3001 31.997 57.0217 31.8414C56.7433 31.6857 56.5258 31.4702 56.3712 31.1918C56.2165 30.9134 56.1387 30.6231 56.1387 30.3198C56.1387 30.0145 56.2175 29.7201 56.3752 29.4388C56.5328 29.1574 56.7523 28.9399 57.0317 28.7882C57.311 28.6376 57.5984 28.5607 57.8937 28.5607C58.1871 28.5607 58.4744 28.6366 58.7548 28.7882C59.0352 28.9399 59.2537 29.1574 59.4103 29.4388C59.567 29.7201 59.6458 30.0145 59.6458 30.3198C59.6458 30.6231 59.569 30.9134 59.4153 31.1918ZM58.229 30.3896V30.3786C58.4734 30.2938 58.672 30.0883 58.672 29.78C58.672 29.5944 58.6031 29.4348 58.4864 29.333C58.3407 29.2003 58.1282 29.1374 57.8019 29.1374C57.5964 29.1374 57.3729 29.1584 57.2193 29.1903V31.5111H57.5236V30.4914H57.8099C58.0853 30.5024 58.214 30.6241 58.2849 30.9494C58.3467 31.2427 58.3996 31.4452 58.4375 31.5111H58.7518C58.7059 31.4203 58.65 31.1938 58.5732 30.8656C58.5153 30.6201 58.4076 30.4515 58.229 30.3896ZM57.8359 30.2599H57.5246V29.4038C57.5774 29.3889 57.6782 29.3749 57.8249 29.3749C58.1452 29.3749 58.3657 29.5086 58.3657 29.8119C58.3657 30.0813 58.1601 30.2599 57.8359 30.2599Z" fill="#797979"/>
</svg>
