<svg xmlns="http://www.w3.org/2000/svg"  width="24" height="24" viewBox="0 0 24 24"><path d="M12 0C5.38251 0 0 5.38366 0 12C0 18.6163 5.38251 24 12 24C18.6175 24 24 18.6152 24 12C24 5.38366 18.6163 0 12 0ZM12.0275 22.6423C6.17487 22.6423 1.41271 17.8813 1.41271 12.0275C1.41271 6.17487 6.17487 1.41271 12.0275 1.41271C17.8802 1.41271 22.6435 6.17487 22.6435 12.0275C22.6435 17.8813 17.8813 22.6423 12.0275 22.6423ZM15.8368 7.80774C15.7668 7.80545 15.6969 7.8043 15.6258 7.8043C13.2052 7.8043 10.7822 7.8043 8.36159 7.8043C7.4408 7.8043 6.6989 8.16894 6.15423 8.91314C5.88705 9.27434 5.73569 9.68485 5.68524 10.1332C5.68065 10.1814 5.66918 10.2295 5.66001 10.2777V14.2888C5.69212 14.4631 5.71505 14.6385 5.75862 14.8082C6.04071 15.9079 7.02685 16.706 8.16321 16.7587C8.23316 16.7622 8.30311 16.7622 8.37305 16.7622C10.7948 16.7622 13.2166 16.7633 15.6373 16.7622C16.5592 16.7622 17.3 16.3987 17.8458 15.6545C18.1118 15.2921 18.2632 14.8805 18.3125 14.4333C18.3182 14.3862 18.3308 14.3381 18.3377 14.2888V10.2777C18.3067 10.1045 18.2838 9.9291 18.2402 9.75824C17.9581 8.65858 16.972 7.85934 15.8368 7.80774ZM13.8519 12.5011C12.7488 13.0332 11.6445 13.5583 10.5391 14.0858C10.3385 14.1821 10.2548 14.1282 10.2548 13.9058C10.2548 13.3657 10.2548 12.8245 10.2548 12.2832C10.2548 11.742 10.2548 11.2031 10.2548 10.6618C10.2548 10.4474 10.343 10.3924 10.5334 10.4887C11.6399 11.0483 12.7476 11.6078 13.8519 12.172C13.9161 12.2053 13.9906 12.2832 13.9964 12.344C13.9998 12.3945 13.915 12.4713 13.8519 12.5011Z"></path></svg>